<svg width="20" height="21" viewBox="0 0 20 21" fill="none" xmlns="http://www.w3.org/2000/svg">
<path d="M7.99979 11.148L5.62979 8.778C5.33579 8.485 5.18979 8.338 5.11179 8.18C4.96179 7.88 4.96179 7.527 5.11179 7.226C5.18979 7.068 5.33579 6.922 5.62879 6.629C5.92179 6.336 6.06879 6.19 6.22579 6.112C6.37397 6.0382 6.53726 5.99979 6.7028 5.99979C6.86833 5.99979 7.03162 6.0382 7.1798 6.112C7.3378 6.19 7.48479 6.336 7.77779 6.629L10.1478 9M7.99979 11.148L16.2218 19.371C16.5148 19.664 16.6618 19.81 16.8198 19.888C17.1198 20.038 17.4728 20.038 17.7738 19.888C17.9318 19.81 18.0778 19.664 18.3708 19.371C18.6638 19.078 18.8098 18.931 18.8878 18.774C18.9616 18.6258 19 18.4625 19 18.297C19 18.1315 18.9616 17.9682 18.8878 17.82C18.8098 17.662 18.6638 17.515 18.3708 17.222L10.1478 9M7.99979 11.148L10.1478 9M2.49979 1L2.60979 1.299C2.75579 1.69 2.8278 1.886 2.9698 2.029C3.1138 2.172 3.3098 2.245 3.7008 2.389L3.99979 2.5L3.7008 2.61C3.3098 2.755 3.11379 2.828 2.97079 2.97C2.82779 3.114 2.75579 3.31 2.61079 3.701L2.49979 4L2.38979 3.701C2.24379 3.31 2.1718 3.114 2.0298 2.971C1.8858 2.828 1.68979 2.755 1.29879 2.611L0.999794 2.5L1.29879 2.39C1.68979 2.245 1.88579 2.172 2.02879 2.03C2.17179 1.886 2.24379 1.69 2.38879 1.299L2.49979 1ZM2.49979 11L2.60979 11.299C2.75579 11.69 2.8278 11.886 2.9698 12.029C3.1138 12.172 3.3098 12.245 3.7008 12.389L3.99979 12.5L3.7008 12.61C3.3098 12.756 3.11379 12.828 2.97079 12.97C2.82779 13.114 2.75579 13.31 2.61079 13.701L2.49979 14L2.38979 13.701C2.24379 13.31 2.1718 13.114 2.0298 12.971C1.8858 12.828 1.68979 12.755 1.29879 12.611L0.999794 12.5L1.29879 12.39C1.68979 12.244 1.88579 12.172 2.02879 12.03C2.17179 11.886 2.24379 11.69 2.38879 11.299L2.49979 11ZM11.4998 1L11.6098 1.299C11.7558 1.69 11.8278 1.886 11.9698 2.029C12.1138 2.172 12.3098 2.245 12.7008 2.389L12.9998 2.5L12.7008 2.61C12.3098 2.755 12.1138 2.828 11.9708 2.97C11.8278 3.114 11.7548 3.31 11.6108 3.701L11.4998 4L11.3898 3.701C11.2438 3.31 11.1718 3.114 11.0298 2.971C10.8858 2.828 10.6898 2.755 10.2988 2.611L9.99979 2.5L10.2988 2.39C10.6898 2.245 10.8858 2.172 11.0288 2.03C11.1718 1.886 11.2448 1.69 11.3888 1.299L11.4998 1Z" 
stroke="white" stroke-width="1.5" stroke-linecap="round" stroke-linejoin="round"/>
</svg>
