<svg width="23" height="23" viewBox="0 0 22 20" fill="none" xmlns="http://www.w3.org/2000/svg">
<path d="M12.7014 6.79442L12.4481 8H13.68H20C20.2652 8 20.5196 8.10536 20.7071 8.29289C20.8946 8.48043 21 8.73478 21 9V11C21 11.1217 20.9784 11.2348 20.9336 11.353L17.9208 18.3862L17.9207 18.3862L17.9169 18.3954C17.7688 18.7508 17.4177 19 17 19H8C7.73478 19 7.48043 18.8946 7.29289 18.7071C7.10536 18.5196 7 18.2652 7 18V8C7 7.72455 7.10794 7.47628 7.29711 7.28711L13.1733 1.41087L13.5229 1.75711C13.5233 1.75751 13.5237 1.75792 13.5241 1.75833C13.6141 1.84896 13.67 1.97724 13.67 2.11C13.67 2.16039 13.6654 2.20275 13.66 2.23069L12.7014 6.79442ZM3 9V19H1V9H3Z" 
stroke="black" stroke-width="2"/>
</svg>
