<svg width="701" height="155" viewBox="0 0 701 155" fill="none" xmlns="http://www.w3.org/2000/svg">
<g clip-path="url(#clip0_196_74)">
<rect width="701" height="155" fill="white"/>
<path d="M97.008 103.76L101.616 102.48C104.176 102.48 105.456 103.76 105.456 106.32C105.456 108.197 104.304 109.52 102 110.288C99.696 111.056 98.032 111.44 97.008 111.44C92.912 111.44 89.7973 108.88 87.664 103.76C86.4693 100.944 85.4453 95.0133 84.592 85.968C83.824 76.9227 83.056 68.7733 82.288 61.52C81.6053 54.1813 80.7093 50.512 79.6 50.512C78.576 50.512 77.296 56.4427 75.76 68.304C75.4187 71.12 75.12 73.552 74.864 75.6C74.6933 77.5627 74.3947 80.08 73.968 83.152C73.6267 86.1387 73.3707 88.3147 73.2 89.68C72.5173 95.3973 71.4507 99.6213 70 102.352C68.5493 104.997 66.2027 106.32 62.96 106.32C58.864 106.32 55.7493 103.76 53.616 98.64C52.336 95.824 50.5867 90.0213 48.368 81.232C46.2347 72.3573 44.2293 64.3787 42.352 57.296C40.56 50.2133 39.3227 46.672 38.64 46.672C37.5307 46.672 36.592 55.0347 35.824 71.76C35.1413 88.4 34.8 101.243 34.8 110.288C34.8 112.763 33.52 114 30.96 114C29.5947 114 28.6133 113.616 28.016 112.848C27.4187 111.995 27.12 111.141 27.12 110.288C27.12 102.096 27.4187 90.3627 28.016 75.088C28.6987 59.728 29.5093 50.256 30.448 46.672C31.8133 41.552 34.5013 38.992 38.512 38.992C42.5227 38.992 45.4667 41.552 47.344 46.672C48.368 49.4027 49.9467 55.3333 52.08 64.464C54.2987 73.5093 56.3893 81.488 58.352 88.4C60.3147 95.2267 61.808 98.64 62.832 98.64C63.9413 98.64 64.8373 95.3973 65.52 88.912C68.4213 65.7013 70.2987 52.9013 71.152 50.512C71.92 48.1227 72.9013 46.2453 74.096 44.88C75.376 43.5147 77.2107 42.832 79.6 42.832C83.696 42.832 86.64 45.392 88.432 50.512C89.1147 52.2187 89.7973 57.6373 90.48 66.768C91.1627 75.8987 92.016 84.3467 93.04 92.112C94.064 99.8773 95.3867 103.76 97.008 103.76ZM109.823 106.576C109.738 106.576 109.098 106.917 107.903 107.6C104.831 109.307 102.57 110.16 101.119 110.16C98.559 110.16 97.279 108.88 97.279 106.32C97.279 104.699 98.559 103.376 101.119 102.352C101.546 102.181 102.57 101.669 104.191 100.816C105.812 99.9627 106.751 99.4507 107.007 99.28C106.666 98.512 106.495 97.36 106.495 95.824C106.495 88.144 109.183 81.5733 114.559 76.112C119.935 70.6507 124.842 67.92 129.279 67.92C133.716 67.92 137.215 68.9867 139.775 71.12C142.335 73.168 143.615 75.6853 143.615 78.672C143.615 81.5733 142.932 84.0907 141.567 86.224C140.202 88.3573 138.068 90.448 135.167 92.496C131.156 95.3973 125.311 98.768 117.631 102.608C121.044 105.083 125.78 106.32 131.839 106.32C137.898 106.32 143.871 105.339 149.759 103.376C151.551 102.779 152.575 102.48 152.831 102.48C155.391 102.48 156.671 103.76 156.671 106.32C156.671 108.197 155.391 109.563 152.831 110.416C145.663 112.805 138.751 114 132.095 114C122.623 114 115.199 111.525 109.823 106.576ZM114.175 95.824C128.682 88.5707 135.935 83.1093 135.935 79.44C135.935 76.88 133.802 75.6 129.535 75.6C126.975 75.6 123.775 77.648 119.935 81.744C116.095 85.7547 114.175 90.448 114.175 95.824ZM225.585 85.456C222.513 92.0267 219.228 97.36 215.729 101.456C212.23 105.552 209.116 107.6 206.385 107.6C200.668 107.6 196.913 103.461 195.121 95.184C193.329 98.256 191.11 101.072 188.465 103.632C183.174 108.837 177.201 111.44 170.545 111.44C167.132 111.44 164.145 110.16 161.585 107.6C159.025 105.04 157.745 102.053 157.745 98.64C157.745 90.2773 160.774 83.0667 166.833 77.008C172.892 70.9493 179.334 67.92 186.161 67.92C190.001 67.92 193.286 68.6453 196.017 70.096C198.833 71.4613 200.241 72.8693 200.241 74.32C200.241 76.88 198.961 78.16 196.401 78.16C195.889 78.16 194.652 77.7333 192.689 76.88C190.726 76.0267 188.55 75.6 186.161 75.6C181.724 75.6 177.158 77.8187 172.465 82.256C167.772 86.6933 165.425 92.1547 165.425 98.64C165.425 99.92 165.937 101.115 166.961 102.224C167.985 103.248 169.265 103.76 170.801 103.76C172.422 103.76 174.044 103.461 175.665 102.864C177.372 102.267 178.78 101.584 179.889 100.816C180.998 100.048 182.15 99.024 183.345 97.744C185.137 95.952 186.758 93.9467 188.209 91.728L189.489 89.68C190.854 87.7173 191.665 86.5227 191.921 86.096C192.262 85.584 192.604 85.072 192.945 84.56C193.372 84.048 193.67 83.664 193.841 83.408C194.097 83.152 194.353 82.896 194.609 82.64C195.036 82.2133 195.761 82 196.785 82C197.894 82 198.79 82.5547 199.473 83.664C200.241 84.688 200.966 86.736 201.649 89.808C203.014 96.5493 204.593 99.92 206.385 99.92C206.982 99.92 207.964 99.1093 209.329 97.488C210.78 95.8667 212.401 93.52 214.193 90.448C215.985 87.376 217.734 83.9627 219.441 80.208C223.622 71.248 226.225 62.288 227.249 53.328C227.249 53.072 227.334 51.92 227.505 49.872C227.761 47.7387 228.06 44.7947 228.401 41.04C228.742 37.2853 229.084 33.5307 229.425 29.776C229.681 27.216 230.961 25.936 233.265 25.936C235.825 25.936 237.105 27.216 237.105 29.776C237.105 30.1173 237.02 30.9707 236.849 32.336C234.46 56.2293 233.265 74.4907 233.265 87.12C233.265 91.216 233.692 94.2027 234.545 96.08C243.932 86.6933 252.892 82 261.425 82C263.985 82 265.265 83.28 265.265 85.84C265.265 88.4 263.814 89.68 260.913 89.68C258.097 89.68 255.025 90.576 251.697 92.368C248.454 94.0747 245.766 95.952 243.633 98C241.585 100.048 239.665 101.968 237.873 103.76C236.166 105.467 235.057 106.32 234.545 106.32C231.388 106.32 229.084 104.229 227.633 100.048C226.268 95.7813 225.585 90.9173 225.585 85.456ZM308.775 114H301.095C296.316 114 292.135 113.104 288.551 111.312C285.052 109.435 282.407 107.045 280.615 104.144C277.202 98.5973 275.495 92.6667 275.495 86.352C275.495 80.0373 276.86 73.7653 279.591 67.536C282.322 61.3067 285.735 56.1867 289.831 52.176C293.927 48.08 298.236 44.88 302.759 42.576C307.282 40.1867 311.164 38.992 314.407 38.992C317.65 38.992 320.508 39.6747 322.983 41.04C325.458 42.4053 326.695 43.856 326.695 45.392C326.695 47.952 325.415 49.232 322.855 49.232C322.087 49.232 320.935 48.8053 319.399 47.952C317.948 47.0987 316.199 46.672 314.151 46.672C312.188 46.672 309.415 47.6533 305.831 49.616C302.247 51.5787 298.748 54.224 295.335 57.552C291.922 60.88 289.02 65.1893 286.631 70.48C284.327 75.7707 283.175 81.1893 283.175 86.736C283.175 92.1973 284.54 96.848 287.271 100.688C290.087 104.443 294.695 106.32 301.095 106.32H308.775C316.37 106.32 323.111 105.339 328.999 103.376C330.791 102.779 331.815 102.48 332.071 102.48C334.631 102.48 335.911 103.76 335.911 106.32C335.911 108.197 334.631 109.563 332.071 110.416C324.903 112.805 317.138 114 308.775 114ZM389.475 103.504C389.475 103.504 390.84 103.163 393.571 102.48C396.131 102.48 397.411 103.76 397.411 106.32C397.411 108.197 396.131 109.563 393.571 110.416C392.035 110.928 390.499 111.184 388.963 111.184C387.512 111.184 386.104 110.843 384.739 110.16C383.374 109.477 382.307 108.453 381.539 107.088C380.259 104.869 379.32 102.48 378.723 99.92L378.211 97.744C376.76 100.219 373.219 103.12 367.587 106.448C362.04 109.776 356.11 111.44 349.795 111.44C346.382 111.44 343.395 110.16 340.835 107.6C338.275 105.04 336.995 102.053 336.995 98.64C336.995 90.3627 340.408 83.1947 347.235 77.136C354.062 70.992 360.974 67.92 367.971 67.92C371.811 67.92 375.096 68.6453 377.827 70.096C380.643 71.4613 382.051 72.8693 382.051 74.32C382.051 76.88 380.771 78.16 378.211 78.16C377.699 78.16 376.462 77.7333 374.499 76.88C372.536 76.0267 370.36 75.6 367.971 75.6C363.363 75.6 358.328 77.8613 352.867 82.384C347.406 86.8213 344.675 92.24 344.675 98.64C344.675 99.92 345.187 101.115 346.211 102.224C347.32 103.248 348.515 103.76 349.795 103.76C354.83 103.76 359.523 102.437 363.875 99.792C368.227 97.0613 371 94.8427 372.195 93.136C373.39 91.344 374.371 89.7227 375.139 88.272C375.907 86.8213 376.462 85.8827 376.803 85.456C377.23 84.944 378.083 84.688 379.363 84.688C380.643 84.688 381.624 85.1573 382.307 86.096C382.99 87.0347 383.63 88.528 384.227 90.576C384.824 92.5387 385.422 94.7573 386.019 97.232C386.616 99.7067 387.128 101.371 387.555 102.224C388.067 103.077 388.707 103.504 389.475 103.504ZM474.271 110.416C469.663 111.952 466.079 112.72 463.519 112.72C460.959 112.72 458.954 111.781 457.503 109.904C456.052 108.027 454.73 104.827 453.535 100.304C452.426 95.7813 451.572 93.52 450.975 93.52C448.756 93.52 446.41 96.9333 443.935 103.76C442.996 106.32 441.46 108.667 439.327 110.8C437.194 112.933 434.506 114 431.263 114C428.106 114 425.631 112.592 423.839 109.776C422.047 106.96 420.98 103.888 420.639 100.56C420.383 97.232 419.956 94.16 419.359 91.344C418.762 88.528 417.78 87.12 416.415 87.12C415.476 87.12 414.794 87.376 414.367 87.888C413.94 88.4 413.556 88.912 413.215 89.424C412.959 89.8507 412.66 90.32 412.319 90.832C412.063 91.2587 411.722 91.856 411.295 92.624C410.954 93.392 410.527 94.2027 410.015 95.056C408.308 98.0427 406.943 100.261 405.919 101.712C403.871 104.955 400.842 107.429 396.831 109.136C395.295 109.819 394.058 110.16 393.119 110.16C390.559 110.16 389.279 108.88 389.279 106.32C389.279 104.699 390.644 103.376 393.375 102.352C396.106 101.328 398.026 99.8773 399.135 98C400.33 96.0373 401.652 93.8187 403.103 91.344C404.554 88.8693 405.535 87.2053 406.047 86.352C406.644 85.4987 407.37 84.4747 408.223 83.28C409.076 82 409.844 81.1893 410.527 80.848C412.319 79.9093 414.282 79.44 416.415 79.44C419.914 79.44 422.559 80.848 424.351 83.664C426.143 86.48 427.167 89.552 427.423 92.88C427.764 96.208 428.234 99.28 428.831 102.096C429.428 104.912 430.41 106.32 431.775 106.32C433.14 106.32 434.42 105.253 435.615 103.12C436.895 100.987 438.004 98.64 438.943 96.08C439.882 93.52 441.375 91.1733 443.423 89.04C445.556 86.9067 448.074 85.84 450.975 85.84C453.194 85.84 454.815 86.3947 455.839 87.504C456.863 88.528 457.588 89.3387 458.015 89.936C458.527 90.5333 458.954 91.4293 459.295 92.624C459.722 93.8187 460.02 94.7147 460.191 95.312C460.362 95.824 460.618 96.7627 460.959 98.128C461.983 102.821 462.922 105.125 463.775 105.04C465.396 105.04 467.487 104.613 470.047 103.76C472.607 102.907 474.015 102.48 474.271 102.48C476.831 102.48 478.111 103.76 478.111 106.32C478.111 108.197 476.831 109.563 474.271 110.416ZM599.44 104.784C601.573 104.784 603.835 104.4 606.224 103.632C608.613 102.864 609.851 102.48 609.936 102.48C612.496 102.48 613.776 103.76 613.776 106.32C613.776 108.197 612.496 109.563 609.936 110.416C605.84 111.781 602.341 112.464 599.44 112.464C595.515 112.464 592.443 110.629 590.224 106.96C588.005 103.205 586.896 100.133 586.896 97.744C585.957 99.3653 584.635 101.072 582.928 102.864C581.221 104.656 578.448 106.533 574.608 108.496C570.768 110.459 566.715 111.44 562.448 111.44C558.267 111.44 554.853 110.117 552.208 107.472C549.563 104.827 548.24 101.456 548.24 97.36C548.24 88.8267 550.672 81.7867 555.536 76.24C560.4 70.6933 566.16 67.92 572.816 67.92C576.741 67.92 580.283 68.6453 583.44 70.096C586.597 71.5467 588.176 72.9547 588.176 74.32C588.176 76.88 586.896 78.16 584.336 78.16C583.824 78.16 582.373 77.7333 579.984 76.88C577.595 76.0267 575.205 75.6 572.816 75.6C568.549 75.6 564.667 77.6053 561.168 81.616C557.669 85.5413 555.92 90.7893 555.92 97.36C555.92 99.2373 556.517 100.773 557.712 101.968C558.907 103.163 560.613 103.76 562.832 103.76C565.136 103.76 567.397 103.376 569.616 102.608C571.92 101.755 573.925 100.56 575.632 99.024C577.936 96.8907 579.6 95.056 580.624 93.52C581.648 91.984 582.501 90.704 583.184 89.68C583.867 88.656 584.379 87.888 584.72 87.376C585.147 86.864 585.531 86.352 585.872 85.84C586.469 84.9867 587.152 84.56 587.92 84.56C590.053 84.56 591.504 85.1573 592.272 86.352C593.125 87.4613 593.723 89.5947 594.064 92.752C594.832 100.773 596.624 104.784 599.44 104.784ZM532.24 89.04C529.253 96.2933 525.499 102.267 520.976 106.96C516.539 111.653 512.187 114 507.92 114C503.739 114 499.984 112.805 496.656 110.416C493.413 108.027 490.811 104.827 488.848 100.816C485.179 93.392 482.832 85.4133 481.808 76.88C481.723 76.2827 481.68 75.4293 481.68 74.32C481.68 71.76 482.96 70.48 485.52 70.48C486.8 70.48 487.696 70.7787 488.208 71.376C488.805 71.888 489.189 72.8267 489.36 74.192C492.091 95.6107 498.32 106.32 508.048 106.32C510.352 106.32 513.125 104.4 516.368 100.56C519.696 96.72 522.64 91.728 525.2 85.584C527.76 79.44 529.04 73.552 529.04 67.92C529.04 65.36 530.32 64.08 532.88 64.08C535.44 64.08 536.72 65.36 536.72 67.92C536.72 74.7467 535.227 81.7867 532.24 89.04ZM609.369 102.352C613.977 100.475 617.604 98.512 620.249 96.464C622.894 94.3307 626.137 91.2587 629.977 87.248C633.817 83.2373 636.334 80.72 637.529 79.696C641.625 76.112 645.977 74.32 650.585 74.32C653.401 74.32 656.473 75.0027 659.801 76.368C663.214 77.7333 666.372 80.1653 669.273 83.664C672.174 87.1627 673.625 91.344 673.625 96.208C673.625 100.987 670.809 105.168 665.177 108.752C659.545 112.251 652.121 114 642.905 114C640.345 114 639.065 112.72 639.065 110.16C639.065 107.6 640.345 106.32 642.905 106.32C649.902 106.32 655.492 105.211 659.673 102.992C663.854 100.688 665.945 98.384 665.945 96.08C665.945 92.9227 664.921 90.192 662.873 87.888C659.289 83.9627 655.193 82 650.585 82C647.94 82 645.337 83.1093 642.777 85.328C642.009 86.0107 639.534 88.4853 635.353 92.752C631.257 97.0187 627.844 100.219 625.113 102.352C622.468 104.485 619.396 106.32 615.897 107.856C612.484 109.392 610.308 110.16 609.369 110.16C606.809 110.16 605.529 108.88 605.529 106.32C605.529 104.699 606.809 103.376 609.369 102.352Z" fill="#1E1E1E"/>
</g>
<defs>
<clipPath id="clip0_196_74">
<rect width="701" height="155" fill="white"/>
</clipPath>
</defs>
</svg>
