<svg width="72" height="18" viewBox="0 0 72 18" fill="none" xmlns="http://www.w3.org/2000/svg">
<path d="M41.36 6.96C43.536 6.96 44.816 8.496 45.2 11.568C45.232 11.728 45.264 12.016 45.296 12.432C45.36 12.816 45.408 13.12 45.44 13.344C45.472 13.568 45.52 13.744 45.584 13.872C45.584 14 45.616 14.128 45.68 14.256C45.776 14.512 45.936 14.64 46.16 14.64C46.768 14.64 47.552 14.48 48.512 14.16C49.472 13.84 50 13.68 50.096 13.68C51.056 13.68 51.536 14.16 51.536 15.12C51.536 15.824 51.056 16.336 50.096 16.656C48.368 17.232 47.024 17.52 46.064 17.52C43.984 17.52 42.736 15.664 42.32 11.952C42.128 10.544 41.808 9.84 41.36 9.84C40.4 9.84 39.184 10.96 37.712 13.2C37.168 14.032 36.448 14.8 35.552 15.504C34.656 16.208 33.744 16.56 32.816 16.56C31.888 16.56 31.152 16.24 30.608 15.6C30.064 14.96 29.712 14.352 29.552 13.776C29.36 13.136 29.056 11.744 28.64 9.6C28.224 7.456 27.936 6.32 27.776 6.192C27.648 6.064 27.536 6 27.44 6C26.992 6 26.592 6.288 26.24 6.864C25.92 7.408 25.552 8.176 25.136 9.168C24.72 10.16 24.32 11.184 23.936 12.24C23.584 13.264 23.296 14.032 23.072 14.544C22.848 15.024 22.544 15.584 22.16 16.224C21.456 17.408 20.496 18 19.28 18C18.448 18 17.744 17.712 17.168 17.136C16.592 16.56 16.144 15.824 15.824 14.928C15.248 13.136 14.944 11.312 14.912 9.456C14.912 7.568 14.72 6.128 14.336 5.136C13.984 4.112 13.552 3.6 13.04 3.6C11.376 3.6 10.128 4.624 9.296 6.672C8.912 7.664 8.496 9.072 8.048 10.896C7.408 13.36 5.888 15.104 3.488 16.128C2.976 16.416 2.448 16.56 1.904 16.56C0.944 16.56 0.464 16.08 0.464 15.12C0.464 14.512 0.944 14.016 1.904 13.632C2.288 13.472 2.496 13.392 2.528 13.392C2.592 13.36 2.72 13.296 2.912 13.2C3.104 13.104 3.232 13.04 3.296 13.008C3.36 12.944 3.472 12.864 3.632 12.768C3.824 12.64 3.952 12.528 4.016 12.432C4.112 12.304 4.224 12.16 4.352 12C4.512 11.84 4.624 11.68 4.688 11.52C4.944 11.04 5.168 10.416 5.36 9.648C5.552 8.88 5.728 8.24 5.888 7.728C6.048 7.216 6.352 6.432 6.8 5.376C7.248 4.288 7.712 3.472 8.192 2.928C8.672 2.384 9.328 1.888 10.16 1.44C11.024 0.959999 12.064 0.719999 13.28 0.719999C14.528 0.719999 15.584 1.44 16.448 2.88C17.344 4.288 17.792 6.448 17.792 9.36C17.792 10.384 17.904 11.6 18.128 13.008C18.384 14.416 18.768 15.12 19.28 15.12C19.536 15.12 19.808 14.784 20.096 14.112C20.384 13.408 20.624 12.816 20.816 12.336C21.008 11.824 21.232 11.216 21.488 10.512C22.448 7.792 23.392 5.888 24.32 4.8C25.248 3.68 26.288 3.12 27.44 3.12C28.784 3.12 29.744 3.728 30.32 4.944C30.8 6 31.136 7.04 31.328 8.064C31.968 11.808 32.432 13.68 32.72 13.68C33.68 13.68 34.896 12.56 36.368 10.32C36.912 9.488 37.632 8.72 38.528 8.016C39.424 7.312 40.368 6.96 41.36 6.96ZM62.48 18H59.6C56.912 18 54.96 17.376 53.744 16.128C52.528 14.848 51.92 13.232 51.92 11.28C51.92 8.432 52.848 5.968 54.704 3.888C56.56 1.776 58.672 0.719999 61.04 0.719999C62.384 0.719999 63.6 0.991999 64.688 1.536C65.776 2.08 66.32 2.608 66.32 3.12C66.32 4.08 65.84 4.56 64.88 4.56C64.464 4.56 63.936 4.4 63.296 4.08C62.656 3.76 61.904 3.6 61.04 3.6C59.312 3.6 57.84 4.416 56.624 6.048C55.408 7.648 54.8 9.248 54.8 10.848C54.8 12.448 55.168 13.568 55.904 14.208C56.672 14.816 57.904 15.12 59.6 15.12H62.48C64.688 15.12 66.896 14.752 69.104 14.016C69.776 13.792 70.16 13.68 70.256 13.68C71.216 13.68 71.696 14.16 71.696 15.12C71.696 15.824 71.216 16.336 70.256 16.656C67.568 17.552 64.976 18 62.48 18Z" fill="url(#paint0_linear_174_77)"/>
<defs>
<linearGradient id="paint0_linear_174_77" x1="2" y1="4.5" x2="71" y2="4.5" gradientUnits="userSpaceOnUse">
<stop stop-color="#418153"/>
<stop offset="1" stop-color="#CDDFE4"/>
</linearGradient>
</defs>
</svg>
