<svg width="39" height="21" viewBox="0 0 39 21" fill="none" xmlns="http://www.w3.org/2000/svg">
<path d="M15.848 1.451H18.089V19.919H15.848V5.582C15.713 5.825 15.578 6.068 15.416 6.284C14.741 7.229 13.769 7.931 12.932 8.741C12.446 9.227 11.987 9.794 11.717 10.415C11.447 11.009 11.366 11.657 11.258 12.278C11.069 13.304 11.015 14.357 10.745 15.383C10.529 16.328 10.151 17.219 9.611 18.029C9.503 18.164 9.368 18.326 9.233 18.461C8.72 18.866 8.126 18.434 8.045 17.84C7.91 17.192 8.153 16.22 8.315 15.599C8.504 14.951 8.72 14.465 8.504 13.79C8.342 13.196 7.883 12.899 7.289 12.791C6.938 12.737 6.56 12.791 6.182 12.791C5.777 12.791 5.345 12.764 4.913 12.71C4.427 12.656 3.914 12.332 3.671 11.873C2.969 10.55 4.319 9.173 4.913 8.12C5.399 7.31 5.885 6.338 5.858 5.366C5.858 4.961 5.75 4.556 5.48 4.205C5.102 3.719 4.319 3.692 3.806 3.962C3.563 4.07 3.347 4.232 3.131 4.34C2.942 4.394 2.753 4.421 2.591 4.394V19.919H0.35V1.451H2.591V2.369C2.645 2.747 2.78 3.125 3.212 3.206C3.617 3.26 3.995 3.125 4.4 3.017C4.805 2.936 5.21 2.855 5.642 2.828C6.29 2.828 7.1 2.936 7.586 3.422C8.072 3.908 8.369 4.529 8.288 5.204C8.18 6.014 7.532 6.608 6.992 7.121C6.155 7.904 5.129 8.687 4.562 9.74C4.184 10.469 3.941 11.603 4.913 11.954C5.318 12.116 5.777 11.954 6.101 11.711C6.992 11.063 7.64 9.659 8.936 10.253C10.07 10.793 9.935 12.332 9.692 13.358C9.449 14.303 9.044 15.221 8.801 16.166C8.693 16.598 8.558 17.057 8.612 17.489C8.639 17.678 8.747 17.894 8.963 17.786C9.287 17.651 9.53 17.003 9.665 16.706C10.556 14.654 10.826 12.386 10.205 10.226C10.016 9.632 9.773 9.011 9.962 8.417C10.097 7.904 10.529 7.526 10.988 7.283C11.447 7.04 11.96 6.878 12.419 6.662C13.985 5.96 15.713 3.962 15.848 2.207V1.451ZM38.2799 12.17C38.6039 12.683 38.8469 13.304 38.6849 13.925C38.5229 14.681 37.7129 15.221 36.9569 15.113C36.2009 15.005 35.6069 14.249 35.6609 13.466C35.6609 13.088 35.8229 12.764 35.9039 12.413C35.9579 12.062 35.9849 11.657 35.7689 11.36C35.4989 11.009 34.8509 11.09 34.4729 11.279C33.7979 11.657 33.7709 12.251 33.9059 12.683C34.1489 13.574 34.8239 13.79 35.3909 14.276C35.8229 14.627 36.2549 14.978 36.5519 15.464C36.9029 16.004 37.0379 16.679 36.9299 17.327C36.7949 17.948 36.4979 18.326 36.0389 18.731C35.1209 19.568 33.9599 20.081 32.7719 20.27C31.9889 20.378 31.1789 20.351 30.3689 20.378C29.4239 20.432 28.4789 20.405 27.5339 20.189C23.4029 19.244 20.8919 15.68 20.8109 11.279C20.8109 10.739 20.7839 10.172 20.8109 9.605C20.8109 9.443 20.8379 9.227 20.8379 9.065C20.8649 8.984 20.9189 8.606 20.9189 8.525C21.7829 3.017 26.6969 0.263 31.7189 1.127C33.5549 1.451 35.3369 2.369 36.5519 3.827C36.7409 4.043 36.9299 4.286 37.0919 4.529C37.4159 5.015 37.6859 5.528 37.9559 6.095H37.9289C37.9829 6.257 38.0099 6.446 38.0099 6.608C38.0099 7.526 37.3079 8.282 36.4169 8.282C35.5259 8.282 34.8239 7.526 34.8239 6.608C34.8239 6.392 34.8779 6.176 34.9589 5.987C35.2829 5.177 35.1479 4.232 34.5809 3.584C34.5269 3.557 34.4999 3.503 34.4459 3.476C33.0149 1.964 30.7469 1.289 28.7759 1.721C25.4819 2.45 23.8079 5.663 23.5379 8.93C23.4569 9.605 23.4569 10.307 23.4569 11.009C23.4299 11.171 23.4299 11.549 23.4299 11.711C23.4029 12.818 23.5109 13.952 23.8079 15.005C23.8349 15.113 23.8619 15.194 23.8889 15.302C24.1859 16.301 24.7529 17.246 25.4819 18.002C26.6699 19.244 28.1279 19.73 29.8289 19.784C31.6919 19.865 33.6089 19.109 34.2299 17.273C34.3919 16.841 34.4729 16.355 34.4189 15.923C34.3109 14.843 33.2849 14.303 33.0149 13.304C32.7989 12.494 33.1229 11.576 33.7709 11.036C34.3919 10.496 35.3099 10.361 36.0929 10.55C36.9029 10.766 37.6049 11.279 38.1179 11.927C38.1719 12.008 38.2259 12.089 38.2799 12.17Z" fill="black"/>
</svg>
