<svg width="647" height="89" viewBox="0 0 647 89" fill="none" xmlns="http://www.w3.org/2000/svg">
<path d="M70.008 78.76L74.616 77.48C77.176 77.48 78.456 78.76 78.456 81.32C78.456 83.1973 77.304 84.52 75 85.288C72.696 86.056 71.032 86.44 70.008 86.44C65.912 86.44 62.7973 83.88 60.664 78.76C59.4693 75.944 58.4453 70.0133 57.592 60.968C56.824 51.9227 56.056 43.7733 55.288 36.52C54.6053 29.1813 53.7093 25.512 52.6 25.512C51.576 25.512 50.296 31.4427 48.76 43.304C48.4187 46.12 48.12 48.552 47.864 50.6C47.6933 52.5627 47.3947 55.08 46.968 58.152C46.6267 61.1387 46.3707 63.3147 46.2 64.68C45.5173 70.3973 44.4507 74.6213 43 77.352C41.5493 79.9973 39.2027 81.32 35.96 81.32C31.864 81.32 28.7493 78.76 26.616 73.64C25.336 70.824 23.5867 65.0213 21.368 56.232C19.2347 47.3573 17.2293 39.3787 15.352 32.296C13.56 25.2133 12.3227 21.672 11.64 21.672C10.5307 21.672 9.592 30.0347 8.824 46.76C8.14133 63.4 7.8 76.2427 7.8 85.288C7.8 87.7627 6.52 89 3.96 89C2.59467 89 1.61333 88.616 1.016 87.848C0.418667 86.9947 0.12 86.1413 0.12 85.288C0.12 77.096 0.418667 65.3627 1.016 50.088C1.69867 34.728 2.50933 25.256 3.448 21.672C4.81333 16.552 7.50133 13.992 11.512 13.992C15.5227 13.992 18.4667 16.552 20.344 21.672C21.368 24.4027 22.9467 30.3333 25.08 39.464C27.2987 48.5093 29.3893 56.488 31.352 63.4C33.3147 70.2267 34.808 73.64 35.832 73.64C36.9413 73.64 37.8373 70.3973 38.52 63.912C41.4213 40.7013 43.2987 27.9013 44.152 25.512C44.92 23.1227 45.9013 21.2453 47.096 19.88C48.376 18.5147 50.2107 17.832 52.6 17.832C56.696 17.832 59.64 20.392 61.432 25.512C62.1147 27.2187 62.7973 32.6373 63.48 41.768C64.1627 50.8987 65.016 59.3467 66.04 67.112C67.064 74.8773 68.3867 78.76 70.008 78.76ZM82.823 81.576C82.7377 81.576 82.0977 81.9173 80.903 82.6C77.831 84.3067 75.5697 85.16 74.119 85.16C71.559 85.16 70.279 83.88 70.279 81.32C70.279 79.6987 71.559 78.376 74.119 77.352C74.5457 77.1813 75.5697 76.6693 77.191 75.816C78.8123 74.9627 79.751 74.4507 80.007 74.28C79.6657 73.512 79.495 72.36 79.495 70.824C79.495 63.144 82.183 56.5733 87.559 51.112C92.935 45.6507 97.8417 42.92 102.279 42.92C106.716 42.92 110.215 43.9867 112.775 46.12C115.335 48.168 116.615 50.6853 116.615 53.672C116.615 56.5733 115.932 59.0907 114.567 61.224C113.202 63.3573 111.068 65.448 108.167 67.496C104.156 70.3973 98.311 73.768 90.631 77.608C94.0443 80.0827 98.7803 81.32 104.839 81.32C110.898 81.32 116.871 80.3387 122.759 78.376C124.551 77.7787 125.575 77.48 125.831 77.48C128.391 77.48 129.671 78.76 129.671 81.32C129.671 83.1973 128.391 84.5627 125.831 85.416C118.663 87.8053 111.751 89 105.095 89C95.623 89 88.199 86.5253 82.823 81.576ZM87.175 70.824C101.682 63.5707 108.935 58.1093 108.935 54.44C108.935 51.88 106.802 50.6 102.535 50.6C99.975 50.6 96.775 52.648 92.935 56.744C89.095 60.7547 87.175 65.448 87.175 70.824ZM198.585 60.456C195.513 67.0267 192.228 72.36 188.729 76.456C185.23 80.552 182.116 82.6 179.385 82.6C173.668 82.6 169.913 78.4613 168.121 70.184C166.329 73.256 164.11 76.072 161.465 78.632C156.174 83.8373 150.201 86.44 143.545 86.44C140.132 86.44 137.145 85.16 134.585 82.6C132.025 80.04 130.745 77.0533 130.745 73.64C130.745 65.2773 133.774 58.0667 139.833 52.008C145.892 45.9493 152.334 42.92 159.161 42.92C163.001 42.92 166.286 43.6453 169.017 45.096C171.833 46.4613 173.241 47.8693 173.241 49.32C173.241 51.88 171.961 53.16 169.401 53.16C168.889 53.16 167.652 52.7333 165.689 51.88C163.726 51.0267 161.55 50.6 159.161 50.6C154.724 50.6 150.158 52.8187 145.465 57.256C140.772 61.6933 138.425 67.1547 138.425 73.64C138.425 74.92 138.937 76.1147 139.961 77.224C140.985 78.248 142.265 78.76 143.801 78.76C145.422 78.76 147.044 78.4613 148.665 77.864C150.372 77.2667 151.78 76.584 152.889 75.816C153.998 75.048 155.15 74.024 156.345 72.744C158.137 70.952 159.758 68.9467 161.209 66.728L162.489 64.68C163.854 62.7173 164.665 61.5227 164.921 61.096C165.262 60.584 165.604 60.072 165.945 59.56C166.372 59.048 166.67 58.664 166.841 58.408C167.097 58.152 167.353 57.896 167.609 57.64C168.036 57.2133 168.761 57 169.785 57C170.894 57 171.79 57.5547 172.473 58.664C173.241 59.688 173.966 61.736 174.649 64.808C176.014 71.5493 177.593 74.92 179.385 74.92C179.982 74.92 180.964 74.1093 182.329 72.488C183.78 70.8667 185.401 68.52 187.193 65.448C188.985 62.376 190.734 58.9627 192.441 55.208C196.622 46.248 199.225 37.288 200.249 28.328C200.249 28.072 200.334 26.92 200.505 24.872C200.761 22.7387 201.06 19.7947 201.401 16.04C201.742 12.2853 202.084 8.53066 202.425 4.77599C202.681 2.216 203.961 0.935997 206.265 0.935997C208.825 0.935997 210.105 2.216 210.105 4.77599C210.105 5.11733 210.02 5.97066 209.849 7.336C207.46 31.2293 206.265 49.4907 206.265 62.12C206.265 66.216 206.692 69.2027 207.545 71.08C216.932 61.6933 225.892 57 234.425 57C236.985 57 238.265 58.28 238.265 60.84C238.265 63.4 236.814 64.68 233.913 64.68C231.097 64.68 228.025 65.576 224.697 67.368C221.454 69.0747 218.766 70.952 216.633 73C214.585 75.048 212.665 76.968 210.873 78.76C209.166 80.4667 208.057 81.32 207.545 81.32C204.388 81.32 202.084 79.2293 200.633 75.048C199.268 70.7813 198.585 65.9173 198.585 60.456ZM281.775 89H274.095C269.316 89 265.135 88.104 261.551 86.312C258.052 84.4347 255.407 82.0453 253.615 79.144C250.202 73.5973 248.495 67.6667 248.495 61.352C248.495 55.0373 249.86 48.7653 252.591 42.536C255.322 36.3067 258.735 31.1867 262.831 27.176C266.927 23.08 271.236 19.88 275.759 17.576C280.282 15.1867 284.164 13.992 287.407 13.992C290.65 13.992 293.508 14.6747 295.983 16.04C298.458 17.4053 299.695 18.856 299.695 20.392C299.695 22.952 298.415 24.232 295.855 24.232C295.087 24.232 293.935 23.8053 292.399 22.952C290.948 22.0987 289.199 21.672 287.151 21.672C285.188 21.672 282.415 22.6533 278.831 24.616C275.247 26.5787 271.748 29.224 268.335 32.552C264.922 35.88 262.02 40.1893 259.631 45.48C257.327 50.7707 256.175 56.1893 256.175 61.736C256.175 67.1973 257.54 71.848 260.271 75.688C263.087 79.4427 267.695 81.32 274.095 81.32H281.775C289.37 81.32 296.111 80.3387 301.999 78.376C303.791 77.7787 304.815 77.48 305.071 77.48C307.631 77.48 308.911 78.76 308.911 81.32C308.911 83.1973 307.631 84.5627 305.071 85.416C297.903 87.8053 290.138 89 281.775 89ZM362.475 78.504C362.475 78.504 363.84 78.1627 366.571 77.48C369.131 77.48 370.411 78.76 370.411 81.32C370.411 83.1973 369.131 84.5627 366.571 85.416C365.035 85.928 363.499 86.184 361.963 86.184C360.512 86.184 359.104 85.8427 357.739 85.16C356.374 84.4773 355.307 83.4533 354.539 82.088C353.259 79.8693 352.32 77.48 351.723 74.92L351.211 72.744C349.76 75.2187 346.219 78.12 340.587 81.448C335.04 84.776 329.11 86.44 322.795 86.44C319.382 86.44 316.395 85.16 313.835 82.6C311.275 80.04 309.995 77.0533 309.995 73.64C309.995 65.3627 313.408 58.1947 320.235 52.136C327.062 45.992 333.974 42.92 340.971 42.92C344.811 42.92 348.096 43.6453 350.827 45.096C353.643 46.4613 355.051 47.8693 355.051 49.32C355.051 51.88 353.771 53.16 351.211 53.16C350.699 53.16 349.462 52.7333 347.499 51.88C345.536 51.0267 343.36 50.6 340.971 50.6C336.363 50.6 331.328 52.8613 325.867 57.384C320.406 61.8213 317.675 67.24 317.675 73.64C317.675 74.92 318.187 76.1147 319.211 77.224C320.32 78.248 321.515 78.76 322.795 78.76C327.83 78.76 332.523 77.4373 336.875 74.792C341.227 72.0613 344 69.8427 345.195 68.136C346.39 66.344 347.371 64.7227 348.139 63.272C348.907 61.8213 349.462 60.8827 349.803 60.456C350.23 59.944 351.083 59.688 352.363 59.688C353.643 59.688 354.624 60.1573 355.307 61.096C355.99 62.0347 356.63 63.528 357.227 65.576C357.824 67.5387 358.422 69.7573 359.019 72.232C359.616 74.7067 360.128 76.3707 360.555 77.224C361.067 78.0773 361.707 78.504 362.475 78.504ZM447.271 85.416C442.663 86.952 439.079 87.72 436.519 87.72C433.959 87.72 431.954 86.7813 430.503 84.904C429.052 83.0267 427.73 79.8267 426.535 75.304C425.426 70.7813 424.572 68.52 423.975 68.52C421.756 68.52 419.41 71.9333 416.935 78.76C415.996 81.32 414.46 83.6667 412.327 85.8C410.194 87.9333 407.506 89 404.263 89C401.106 89 398.631 87.592 396.839 84.776C395.047 81.96 393.98 78.888 393.639 75.56C393.383 72.232 392.956 69.16 392.359 66.344C391.762 63.528 390.78 62.12 389.415 62.12C388.476 62.12 387.794 62.376 387.367 62.888C386.94 63.4 386.556 63.912 386.215 64.424C385.959 64.8507 385.66 65.32 385.319 65.832C385.063 66.2587 384.722 66.856 384.295 67.624C383.954 68.392 383.527 69.2027 383.015 70.056C381.308 73.0427 379.943 75.2613 378.919 76.712C376.871 79.9547 373.842 82.4293 369.831 84.136C368.295 84.8187 367.058 85.16 366.119 85.16C363.559 85.16 362.279 83.88 362.279 81.32C362.279 79.6987 363.644 78.376 366.375 77.352C369.106 76.328 371.026 74.8773 372.135 73C373.33 71.0373 374.652 68.8187 376.103 66.344C377.554 63.8693 378.535 62.2053 379.047 61.352C379.644 60.4987 380.37 59.4747 381.223 58.28C382.076 57 382.844 56.1893 383.527 55.848C385.319 54.9093 387.282 54.44 389.415 54.44C392.914 54.44 395.559 55.848 397.351 58.664C399.143 61.48 400.167 64.552 400.423 67.88C400.764 71.208 401.234 74.28 401.831 77.096C402.428 79.912 403.41 81.32 404.775 81.32C406.14 81.32 407.42 80.2533 408.615 78.12C409.895 75.9867 411.004 73.64 411.943 71.08C412.882 68.52 414.375 66.1733 416.423 64.04C418.556 61.9067 421.074 60.84 423.975 60.84C426.194 60.84 427.815 61.3947 428.839 62.504C429.863 63.528 430.588 64.3387 431.015 64.936C431.527 65.5333 431.954 66.4293 432.295 67.624C432.722 68.8187 433.02 69.7147 433.191 70.312C433.362 70.824 433.618 71.7627 433.959 73.128C434.983 77.8213 435.922 80.1253 436.775 80.04C438.396 80.04 440.487 79.6133 443.047 78.76C445.607 77.9067 447.015 77.48 447.271 77.48C449.831 77.48 451.111 78.76 451.111 81.32C451.111 83.1973 449.831 84.5627 447.271 85.416ZM572.44 79.784C574.573 79.784 576.835 79.4 579.224 78.632C581.613 77.864 582.851 77.48 582.936 77.48C585.496 77.48 586.776 78.76 586.776 81.32C586.776 83.1973 585.496 84.5627 582.936 85.416C578.84 86.7813 575.341 87.464 572.44 87.464C568.515 87.464 565.443 85.6293 563.224 81.96C561.005 78.2053 559.896 75.1333 559.896 72.744C558.957 74.3653 557.635 76.072 555.928 77.864C554.221 79.656 551.448 81.5333 547.608 83.496C543.768 85.4587 539.715 86.44 535.448 86.44C531.267 86.44 527.853 85.1173 525.208 82.472C522.563 79.8267 521.24 76.456 521.24 72.36C521.24 63.8267 523.672 56.7867 528.536 51.24C533.4 45.6933 539.16 42.92 545.816 42.92C549.741 42.92 553.283 43.6453 556.44 45.096C559.597 46.5467 561.176 47.9547 561.176 49.32C561.176 51.88 559.896 53.16 557.336 53.16C556.824 53.16 555.373 52.7333 552.984 51.88C550.595 51.0267 548.205 50.6 545.816 50.6C541.549 50.6 537.667 52.6053 534.168 56.616C530.669 60.5413 528.92 65.7893 528.92 72.36C528.92 74.2373 529.517 75.7733 530.712 76.968C531.907 78.1627 533.613 78.76 535.832 78.76C538.136 78.76 540.397 78.376 542.616 77.608C544.92 76.7547 546.925 75.56 548.632 74.024C550.936 71.8907 552.6 70.056 553.624 68.52C554.648 66.984 555.501 65.704 556.184 64.68C556.867 63.656 557.379 62.888 557.72 62.376C558.147 61.864 558.531 61.352 558.872 60.84C559.469 59.9867 560.152 59.56 560.92 59.56C563.053 59.56 564.504 60.1573 565.272 61.352C566.125 62.4613 566.723 64.5947 567.064 67.752C567.832 75.7733 569.624 79.784 572.44 79.784ZM505.24 64.04C502.253 71.2933 498.499 77.2667 493.976 81.96C489.539 86.6533 485.187 89 480.92 89C476.739 89 472.984 87.8053 469.656 85.416C466.413 83.0267 463.811 79.8267 461.848 75.816C458.179 68.392 455.832 60.4133 454.808 51.88C454.723 51.2827 454.68 50.4293 454.68 49.32C454.68 46.76 455.96 45.48 458.52 45.48C459.8 45.48 460.696 45.7787 461.208 46.376C461.805 46.888 462.189 47.8267 462.36 49.192C465.091 70.6107 471.32 81.32 481.048 81.32C483.352 81.32 486.125 79.4 489.368 75.56C492.696 71.72 495.64 66.728 498.2 60.584C500.76 54.44 502.04 48.552 502.04 42.92C502.04 40.36 503.32 39.08 505.88 39.08C508.44 39.08 509.72 40.36 509.72 42.92C509.72 49.7467 508.227 56.7867 505.24 64.04ZM582.369 77.352C586.977 75.4747 590.604 73.512 593.249 71.464C595.894 69.3307 599.137 66.2587 602.977 62.248C606.817 58.2373 609.334 55.72 610.529 54.696C614.625 51.112 618.977 49.32 623.585 49.32C626.401 49.32 629.473 50.0027 632.801 51.368C636.214 52.7333 639.372 55.1653 642.273 58.664C645.174 62.1627 646.625 66.344 646.625 71.208C646.625 75.9867 643.809 80.168 638.177 83.752C632.545 87.2507 625.121 89 615.905 89C613.345 89 612.065 87.72 612.065 85.16C612.065 82.6 613.345 81.32 615.905 81.32C622.902 81.32 628.492 80.2107 632.673 77.992C636.854 75.688 638.945 73.384 638.945 71.08C638.945 67.9227 637.921 65.192 635.873 62.888C632.289 58.9627 628.193 57 623.585 57C620.94 57 618.337 58.1093 615.777 60.328C615.009 61.0107 612.534 63.4853 608.353 67.752C604.257 72.0187 600.844 75.2187 598.113 77.352C595.468 79.4853 592.396 81.32 588.897 82.856C585.484 84.392 583.308 85.16 582.369 85.16C579.809 85.16 578.529 83.88 578.529 81.32C578.529 79.6987 579.809 78.376 582.369 77.352Z" fill="#1E1E1E"/>
</svg>
