<svg width="15" height="13" viewBox="0 0 20 18" fill="none" xmlns="http://www.w3.org/2000/svg">
<path d="M18 2H14.83L13.59 0.65C13.4033 0.445876 13.1762 0.282715 12.9232 0.170833C12.6701 0.0589507 12.3967 0.000780555 12.12 0H7.88C7.32 0 6.78 0.24 6.41 0.65L5.17 2H2C0.9 2 0 2.9 0 4V16C0 17.1 0.9 18 2 18H18C19.1 18 20 17.1 20 16V4C20 2.9 19.1 2 18 2ZM15 14H5C4.90714 14 4.81612 13.9741 4.73713 13.9253C4.65815 13.8765 4.59431 13.8067 4.55279 13.7236C4.51126 13.6406 4.49368 13.5476 4.50202 13.4551C4.51036 13.3626 4.54429 13.2743 4.6 13.2L6.6 10.53C6.8 10.26 7.2 10.26 7.4 10.53L9.25 13L11.85 9.53C12.05 9.26 12.45 9.26 12.65 9.53L15.4 13.2C15.4557 13.2743 15.4896 13.3626 15.498 13.4551C15.5063 13.5476 15.4887 13.6406 15.4472 13.7236C15.4057 13.8067 15.3419 13.8765 15.2629 13.9253C15.1839 13.9741 15.0929 14 15 14Z" fill="black"/>
</svg>
