<svg width="14" height="16" viewBox="0 0 14 16" fill="none" xmlns="http://www.w3.org/2000/svg">
<path d="M1 3.55045C1 2.65779 1 2.21146 1.218 1.87034C1.40974 1.57042 1.71569 1.32657 2.092 1.17375C2.52 1 3.08 1 4.2 1H9.8C10.92 1 11.48 1 11.908 1.17375C12.2843 1.32657 12.5903 1.57042 12.782 1.87034C13 2.21146 13 2.65779 13 3.55045V14.1547C13 14.5421 13 14.7358 12.899 14.8418C12.8554 14.8879 12.7997 14.9259 12.7358 14.9531C12.6719 14.9804 12.6013 14.9962 12.529 14.9996C12.362 15.0076 12.16 14.9 11.756 14.6856L7 12.1582L2.244 14.6848C1.84 14.9 1.638 15.0076 1.47 14.9996C1.39784 14.9961 1.32748 14.9802 1.26377 14.953C1.20007 14.9257 1.14453 14.8878 1.101 14.8418C1 14.7358 1 14.5421 1 14.1547V3.55045Z" fill="black" stroke="black" stroke-linecap="round" stroke-linejoin="round"/>
</svg>
