<svg width="18" height="18" viewBox="0 0 14 17" fill="none" xmlns="http://www.w3.org/2000/svg">
<path d="M1 3.73263C1 2.77621 1 2.298 1.218 1.93251C1.40974 1.61116 1.71569 1.3499 2.092 1.18616C2.52 1 3.08 1 4.2 1H9.8C10.92 1 11.48 1 11.908 1.18616C12.2843 1.3499 12.5903 1.61116 12.782 1.93251C13 2.298 13 2.77621 13 3.73263V15.0944C13 15.5094 13 15.7169 12.899 15.8305C12.8554 15.8799 12.7997 15.9206 12.7358 15.9498C12.6719 15.979 12.6013 15.996 12.529 15.9996C12.362 16.0081 12.16 15.8928 11.756 15.6631L7 12.9552L2.244 15.6622C1.84 15.8928 1.638 16.0081 1.47 15.9996C1.39784 15.9958 1.32748 15.9788 1.26377 15.9496C1.20007 15.9204 1.14453 15.8798 1.101 15.8305C1 15.7169 1 15.5094 1 15.0944V3.73263Z" 
stroke="black" stroke-width="2" stroke-linecap="round" stroke-linejoin="round"/>
</svg>
